<svg height="512pt" viewBox="-1 0 512 512" width="512pt" xmlns="http://www.w3.org/2000/svg"><path d="m495 300h-60c-8.285156 0-15 6.714844-15 15v182c0 8.285156 6.714844 15 15 15h60c8.285156 0 15-6.714844 15-15v-182c0-8.285156-6.714844-15-15-15zm-15 182h-30v-152h30zm0 0"/><path d="m355 180h-60c-8.285156 0-15 6.714844-15 15v302c0 8.285156 6.714844 15 15 15h60c8.285156 0 15-6.714844 15-15v-302c0-8.285156-6.714844-15-15-15zm-15 302h-30v-272h30zm0 0"/><path d="m215 240h-60c-8.285156 0-15 6.714844-15 15v242c0 8.285156 6.714844 15 15 15h60c8.285156 0 15-6.714844 15-15v-242c0-8.285156-6.714844-15-15-15zm-15 242h-30v-212h30zm0 0"/><path d="m75 300h-60c-8.285156 0-15 6.714844-15 15v182c0 8.285156 6.714844 15 15 15h60c8.285156 0 15-6.714844 15-15v-182c0-8.285156-6.714844-15-15-15zm-15 182h-30v-152h30zm0 0"/><path d="m495 180h-60c-8.285156 0-15 6.714844-15 15s6.714844 15 15 15h60c8.285156 0 15-6.714844 15-15s-6.714844-15-15-15zm0 0"/><path d="m495 240h-60c-8.285156 0-15 6.714844-15 15s6.714844 15 15 15h60c8.285156 0 15-6.714844 15-15s-6.714844-15-15-15zm0 0"/><path d="m435 150h60c8.285156 0 15-6.714844 15-15s-6.714844-15-15-15h-60c-8.285156 0-15 6.714844-15 15s6.714844 15 15 15zm0 0"/><path d="m215 180h-60c-8.285156 0-15 6.714844-15 15s6.714844 15 15 15h60c8.285156 0 15-6.714844 15-15s-6.714844-15-15-15zm0 0"/><path d="m215 120h-60c-8.285156 0-15 6.714844-15 15s6.714844 15 15 15h60c8.285156 0 15-6.714844 15-15s-6.714844-15-15-15zm0 0"/><path d="m215 60h-60c-8.285156 0-15 6.714844-15 15s6.714844 15 15 15h60c8.285156 0 15-6.714844 15-15s-6.714844-15-15-15zm0 0"/><path d="m75 180h-60c-8.285156 0-15 6.714844-15 15s6.714844 15 15 15h60c8.285156 0 15-6.714844 15-15s-6.714844-15-15-15zm0 0"/><path d="m75 240h-60c-8.285156 0-15 6.714844-15 15s6.714844 15 15 15h60c8.285156 0 15-6.714844 15-15s-6.714844-15-15-15zm0 0"/><path d="m355 120h-60c-8.285156 0-15 6.714844-15 15s6.714844 15 15 15h60c8.285156 0 15-6.714844 15-15s-6.714844-15-15-15zm0 0"/><path d="m355 60h-60c-8.285156 0-15 6.714844-15 15s6.714844 15 15 15h60c8.285156 0 15-6.714844 15-15s-6.714844-15-15-15zm0 0"/><path d="m355 0h-60c-8.285156 0-15 6.714844-15 15s6.714844 15 15 15h60c8.285156 0 15-6.714844 15-15s-6.714844-15-15-15zm0 0"/></svg>